{
	"asset":{
		"generator":"Khronos glTF Blender I/O v3.6.28",
		"version":"2.0"
	},
	"scene":0,
	"scenes":[
		{
			"name":"Scene",
			"nodes":[
				0
			]
		}
	],
	"nodes":[
		{
			"mesh":0,
			"name":"Building.001",
			"rotation":[
				0.7071068286895752,
				0,
				0,
				0.7071068286895752
			],
			"scale":[
				4,
				4,
				4
			],
			"translation":[
				2.5264034271240234,
				2.860292911529541,
				-0.8575451374053955
			]
		}
	],
	"materials":[
		{
			"doubleSided":true,
			"name":"Material.001",
			"pbrMetallicRoughness":{
				"baseColorTexture":{
					"index":0
				},
				"metallicFactor":0,
				"metallicRoughnessTexture":{
					"index":1
				}
			}
		},
		{
			"doubleSided":true,
			"name":"Material.002",
			"pbrMetallicRoughness":{
				"baseColorTexture":{
					"index":2
				},
				"metallicFactor":0,
				"metallicRoughnessTexture":{
					"index":3
				}
			}
		},
		{
			"doubleSided":true,
			"name":"BigTexture",
			"pbrMetallicRoughness":{
				"baseColorTexture":{
					"index":4
				},
				"metallicFactor":0,
				"metallicRoughnessTexture":{
					"index":5
				}
			}
		},
		{
			"doubleSided":true,
			"name":"Material_25",
			"pbrMetallicRoughness":{
				"baseColorTexture":{
					"index":6
				},
				"metallicFactor":0,
				"metallicRoughnessTexture":{
					"index":7
				}
			}
		},
		{
			"doubleSided":true,
			"name":"Material_26",
			"pbrMetallicRoughness":{
				"baseColorTexture":{
					"index":8
				},
				"metallicFactor":0,
				"metallicRoughnessTexture":{
					"index":9
				}
			}
		},
		{
			"doubleSided":true,
			"name":"Planks_SHD",
			"pbrMetallicRoughness":{
				"baseColorTexture":{
					"index":10
				},
				"metallicFactor":0,
				"metallicRoughnessTexture":{
					"index":11
				}
			}
		},
		{
			"doubleSided":true,
			"name":"Spire_Metal",
			"pbrMetallicRoughness":{
				"baseColorTexture":{
					"index":12
				},
				"metallicRoughnessTexture":{
					"index":13
				}
			}
		},
		{
			"doubleSided":true,
			"name":"Build",
			"pbrMetallicRoughness":{
				"baseColorTexture":{
					"index":14
				},
				"metallicFactor":0,
				"metallicRoughnessTexture":{
					"index":15
				}
			}
		}
	],
	"meshes":[
		{
			"name":"Object_0.001",
			"primitives":[
				{
					"attributes":{
						"COLOR_0":0,
						"POSITION":1,
						"NORMAL":2,
						"TEXCOORD_0":3
					},
					"indices":4,
					"material":0
				},
				{
					"attributes":{
						"COLOR_0":5,
						"POSITION":6,
						"NORMAL":7,
						"TEXCOORD_0":8
					},
					"indices":9,
					"material":1
				},
				{
					"attributes":{
						"COLOR_0":10,
						"POSITION":11,
						"NORMAL":12,
						"TEXCOORD_0":13
					},
					"indices":14,
					"material":2
				},
				{
					"attributes":{
						"COLOR_0":15,
						"POSITION":16,
						"NORMAL":17,
						"TEXCOORD_0":18
					},
					"indices":19,
					"material":3
				},
				{
					"attributes":{
						"COLOR_0":20,
						"POSITION":21,
						"NORMAL":22,
						"TEXCOORD_0":23
					},
					"indices":24,
					"material":4
				},
				{
					"attributes":{
						"COLOR_0":25,
						"POSITION":26,
						"NORMAL":27,
						"TEXCOORD_0":28
					},
					"indices":29,
					"material":5
				},
				{
					"attributes":{
						"COLOR_0":30,
						"POSITION":31,
						"NORMAL":32,
						"TEXCOORD_0":33
					},
					"indices":34,
					"material":6
				},
				{
					"attributes":{
						"COLOR_0":35,
						"POSITION":36,
						"NORMAL":37,
						"TEXCOORD_0":38
					},
					"indices":39,
					"material":7
				}
			]
		}
	],
	"textures":[
		{
			"sampler":0,
			"source":0
		},
		{
			"sampler":0,
			"source":1
		},
		{
			"sampler":0,
			"source":0
		},
		{
			"sampler":0,
			"source":1
		},
		{
			"sampler":0,
			"source":0
		},
		{
			"sampler":0,
			"source":1
		},
		{
			"sampler":0,
			"source":0
		},
		{
			"sampler":0,
			"source":1
		},
		{
			"sampler":0,
			"source":0
		},
		{
			"sampler":0,
			"source":1
		},
		{
			"sampler":0,
			"source":0
		},
		{
			"sampler":0,
			"source":1
		},
		{
			"sampler":0,
			"source":0
		},
		{
			"sampler":0,
			"source":1
		},
		{
			"sampler":0,
			"source":0
		},
		{
			"sampler":0,
			"source":1
		}
	],
	"images":[
		{
			"mimeType":"image/png",
			"name":"combined_baseColor_diffuse",
			"uri":"Textures/combined_baseColor_diffuse.png"
		},
		{
			"mimeType":"image/png",
			"name":"combined_metallicRoughness_specular",
			"uri":"Textures/combined_metallicRoughness_specular.png"
		}
	],
	"accessors":[
		{
			"bufferView":0,
			"componentType":5123,
			"count":7419,
			"normalized":true,
			"type":"VEC4"
		},
		{
			"bufferView":1,
			"componentType":5126,
			"count":7419,
			"max":[
				-2.077625036239624,
				3.296663999557495,
				0.7091371417045593
			],
			"min":[
				-4.078581809997559,
				1.2963082790374756,
				-1.290863037109375
			],
			"type":"VEC3"
		},
		{
			"bufferView":2,
			"componentType":5126,
			"count":7419,
			"type":"VEC3"
		},
		{
			"bufferView":3,
			"componentType":5126,
			"count":7419,
			"type":"VEC2"
		},
		{
			"bufferView":4,
			"componentType":5123,
			"count":18120,
			"type":"SCALAR"
		},
		{
			"bufferView":5,
			"componentType":5123,
			"count":576,
			"normalized":true,
			"type":"VEC4"
		},
		{
			"bufferView":6,
			"componentType":5126,
			"count":576,
			"max":[
				-2.169053316116333,
				3.2052361965179443,
				0.5004345774650574
			],
			"min":[
				-3.987154245376587,
				1.3877360820770264,
				-1.0867102146148682
			],
			"type":"VEC3"
		},
		{
			"bufferView":7,
			"componentType":5126,
			"count":576,
			"type":"VEC3"
		},
		{
			"bufferView":8,
			"componentType":5126,
			"count":576,
			"type":"VEC2"
		},
		{
			"bufferView":9,
			"componentType":5123,
			"count":864,
			"type":"SCALAR"
		},
		{
			"bufferView":10,
			"componentType":5123,
			"count":33793,
			"normalized":true,
			"type":"VEC4"
		},
		{
			"bufferView":11,
			"componentType":5126,
			"count":33793,
			"max":[
				5.204123497009277,
				4.099081993103027,
				0.9916892051696777
			],
			"min":[
				-4.824096202850342,
				-5.929213047027588,
				-0.9571118354797363
			],
			"type":"VEC3"
		},
		{
			"bufferView":12,
			"componentType":5126,
			"count":33793,
			"type":"VEC3"
		},
		{
			"bufferView":13,
			"componentType":5126,
			"count":33793,
			"type":"VEC2"
		},
		{
			"bufferView":14,
			"componentType":5123,
			"count":96489,
			"type":"SCALAR"
		},
		{
			"bufferView":15,
			"componentType":5123,
			"count":2575,
			"normalized":true,
			"type":"VEC4"
		},
		{
			"bufferView":16,
			"componentType":5126,
			"count":2575,
			"max":[
				-0.8960859775543213,
				0.8601301312446594,
				0.6154133677482605
			],
			"min":[
				-1.32395601272583,
				0.49628716707229614,
				0.4844967722892761
			],
			"type":"VEC3"
		},
		{
			"bufferView":17,
			"componentType":5126,
			"count":2575,
			"type":"VEC3"
		},
		{
			"bufferView":18,
			"componentType":5126,
			"count":2575,
			"type":"VEC2"
		},
		{
			"bufferView":19,
			"componentType":5123,
			"count":5871,
			"type":"SCALAR"
		},
		{
			"bufferView":20,
			"componentType":5123,
			"count":1806,
			"normalized":true,
			"type":"VEC4"
		},
		{
			"bufferView":21,
			"componentType":5126,
			"count":1806,
			"max":[
				-1.2080645561218262,
				0.8912938237190247,
				0.6171366572380066
			],
			"min":[
				-1.3972384929656982,
				0.44657689332962036,
				0.4928073287010193
			],
			"type":"VEC3"
		},
		{
			"bufferView":22,
			"componentType":5126,
			"count":1806,
			"type":"VEC3"
		},
		{
			"bufferView":23,
			"componentType":5126,
			"count":1806,
			"type":"VEC2"
		},
		{
			"bufferView":24,
			"componentType":5123,
			"count":4482,
			"type":"SCALAR"
		},
		{
			"bufferView":25,
			"componentType":5123,
			"count":2607,
			"normalized":true,
			"type":"VEC4"
		},
		{
			"bufferView":26,
			"componentType":5126,
			"count":2607,
			"max":[
				3.2349045276641846,
				0.6385596394538879,
				0.8263239860534668
			],
			"min":[
				0.9794952869415283,
				-2.4327027797698975,
				0.3337981104850769
			],
			"type":"VEC3"
		},
		{
			"bufferView":27,
			"componentType":5126,
			"count":2607,
			"type":"VEC3"
		},
		{
			"bufferView":28,
			"componentType":5126,
			"count":2607,
			"type":"VEC2"
		},
		{
			"bufferView":29,
			"componentType":5123,
			"count":6150,
			"type":"SCALAR"
		},
		{
			"bufferView":30,
			"componentType":5123,
			"count":276,
			"normalized":true,
			"type":"VEC4"
		},
		{
			"bufferView":31,
			"componentType":5126,
			"count":276,
			"max":[
				0.6291594505310059,
				-0.1666380763053894,
				0.6943022608757019
			],
			"min":[
				-0.24584054946899414,
				-1.0416381359100342,
				-5.980393409729004
			],
			"type":"VEC3"
		},
		{
			"bufferView":32,
			"componentType":5126,
			"count":276,
			"type":"VEC3"
		},
		{
			"bufferView":33,
			"componentType":5126,
			"count":276,
			"type":"VEC2"
		},
		{
			"bufferView":34,
			"componentType":5123,
			"count":570,
			"type":"SCALAR"
		},
		{
			"bufferView":35,
			"componentType":5123,
			"count":3588,
			"normalized":true,
			"type":"VEC4"
		},
		{
			"bufferView":36,
			"componentType":5126,
			"count":3588,
			"max":[
				4.522909164428711,
				3.2716968059539795,
				0.650592029094696
			],
			"min":[
				2.7354090213775635,
				1.1450269222259521,
				-0.05908998101949692
			],
			"type":"VEC3"
		},
		{
			"bufferView":37,
			"componentType":5126,
			"count":3588,
			"type":"VEC3"
		},
		{
			"bufferView":38,
			"componentType":5126,
			"count":3588,
			"type":"VEC2"
		},
		{
			"bufferView":39,
			"componentType":5123,
			"count":5520,
			"type":"SCALAR"
		}
	],
	"bufferViews":[
		{
			"buffer":0,
			"byteLength":59352,
			"byteOffset":0,
			"target":34962
		},
		{
			"buffer":0,
			"byteLength":89028,
			"byteOffset":59352,
			"target":34962
		},
		{
			"buffer":0,
			"byteLength":89028,
			"byteOffset":148380,
			"target":34962
		},
		{
			"buffer":0,
			"byteLength":59352,
			"byteOffset":237408,
			"target":34962
		},
		{
			"buffer":0,
			"byteLength":36240,
			"byteOffset":296760,
			"target":34963
		},
		{
			"buffer":0,
			"byteLength":4608,
			"byteOffset":333000,
			"target":34962
		},
		{
			"buffer":0,
			"byteLength":6912,
			"byteOffset":337608,
			"target":34962
		},
		{
			"buffer":0,
			"byteLength":6912,
			"byteOffset":344520,
			"target":34962
		},
		{
			"buffer":0,
			"byteLength":4608,
			"byteOffset":351432,
			"target":34962
		},
		{
			"buffer":0,
			"byteLength":1728,
			"byteOffset":356040,
			"target":34963
		},
		{
			"buffer":0,
			"byteLength":270344,
			"byteOffset":357768,
			"target":34962
		},
		{
			"buffer":0,
			"byteLength":405516,
			"byteOffset":628112,
			"target":34962
		},
		{
			"buffer":0,
			"byteLength":405516,
			"byteOffset":1033628,
			"target":34962
		},
		{
			"buffer":0,
			"byteLength":270344,
			"byteOffset":1439144,
			"target":34962
		},
		{
			"buffer":0,
			"byteLength":192978,
			"byteOffset":1709488,
			"target":34963
		},
		{
			"buffer":0,
			"byteLength":20600,
			"byteOffset":1902468,
			"target":34962
		},
		{
			"buffer":0,
			"byteLength":30900,
			"byteOffset":1923068,
			"target":34962
		},
		{
			"buffer":0,
			"byteLength":30900,
			"byteOffset":1953968,
			"target":34962
		},
		{
			"buffer":0,
			"byteLength":20600,
			"byteOffset":1984868,
			"target":34962
		},
		{
			"buffer":0,
			"byteLength":11742,
			"byteOffset":2005468,
			"target":34963
		},
		{
			"buffer":0,
			"byteLength":14448,
			"byteOffset":2017212,
			"target":34962
		},
		{
			"buffer":0,
			"byteLength":21672,
			"byteOffset":2031660,
			"target":34962
		},
		{
			"buffer":0,
			"byteLength":21672,
			"byteOffset":2053332,
			"target":34962
		},
		{
			"buffer":0,
			"byteLength":14448,
			"byteOffset":2075004,
			"target":34962
		},
		{
			"buffer":0,
			"byteLength":8964,
			"byteOffset":2089452,
			"target":34963
		},
		{
			"buffer":0,
			"byteLength":20856,
			"byteOffset":2098416,
			"target":34962
		},
		{
			"buffer":0,
			"byteLength":31284,
			"byteOffset":2119272,
			"target":34962
		},
		{
			"buffer":0,
			"byteLength":31284,
			"byteOffset":2150556,
			"target":34962
		},
		{
			"buffer":0,
			"byteLength":20856,
			"byteOffset":2181840,
			"target":34962
		},
		{
			"buffer":0,
			"byteLength":12300,
			"byteOffset":2202696,
			"target":34963
		},
		{
			"buffer":0,
			"byteLength":2208,
			"byteOffset":2214996,
			"target":34962
		},
		{
			"buffer":0,
			"byteLength":3312,
			"byteOffset":2217204,
			"target":34962
		},
		{
			"buffer":0,
			"byteLength":3312,
			"byteOffset":2220516,
			"target":34962
		},
		{
			"buffer":0,
			"byteLength":2208,
			"byteOffset":2223828,
			"target":34962
		},
		{
			"buffer":0,
			"byteLength":1140,
			"byteOffset":2226036,
			"target":34963
		},
		{
			"buffer":0,
			"byteLength":28704,
			"byteOffset":2227176,
			"target":34962
		},
		{
			"buffer":0,
			"byteLength":43056,
			"byteOffset":2255880,
			"target":34962
		},
		{
			"buffer":0,
			"byteLength":43056,
			"byteOffset":2298936,
			"target":34962
		},
		{
			"buffer":0,
			"byteLength":28704,
			"byteOffset":2341992,
			"target":34962
		},
		{
			"buffer":0,
			"byteLength":11040,
			"byteOffset":2370696,
			"target":34963
		}
	],
	"samplers":[
		{
			"magFilter":9729,
			"minFilter":9987
		}
	],
	"buffers":[
		{
			"byteLength":2381736,
			"uri":"scene.bin"
		}
	]
}
