{
	"asset":{
		"generator":"Khronos glTF Blender I/O v3.6.28",
		"version":"2.0"
	},
	"scene":0,
	"scenes":[
		{
			"name":"Scene",
			"nodes":[
				0
			]
		}
	],
	"nodes":[
		{
			"mesh":0,
			"name":"Cylinder.001",
			"rotation":[
				0,
				-1,
				0,
				1.1924880638503055e-08
			],
			"scale":[
				0.027000002562999725,
				0.09000000357627869,
				0.027000002562999725
			]
		}
	],
	"meshes":[
		{
			"name":"Cylinder.001",
			"primitives":[
				{
					"attributes":{
						"POSITION":0,
						"NORMAL":1,
						"TEXCOORD_0":2
					},
					"indices":3
				}
			]
		}
	],
	"accessors":[
		{
			"bufferView":0,
			"componentType":5126,
			"count":5202,
			"max":[
				230.110595703125,
				7.504303932189941,
				229.9613037109375
			],
			"min":[
				-229.92625427246094,
				-0.9265473484992981,
				-230.07554626464844
			],
			"type":"VEC3"
		},
		{
			"bufferView":1,
			"componentType":5126,
			"count":5202,
			"type":"VEC3"
		},
		{
			"bufferView":2,
			"componentType":5126,
			"count":5202,
			"type":"VEC2"
		},
		{
			"bufferView":3,
			"componentType":5123,
			"count":10770,
			"type":"SCALAR"
		}
	],
	"bufferViews":[
		{
			"buffer":0,
			"byteLength":62424,
			"byteOffset":0,
			"target":34962
		},
		{
			"buffer":0,
			"byteLength":62424,
			"byteOffset":62424,
			"target":34962
		},
		{
			"buffer":0,
			"byteLength":41616,
			"byteOffset":124848,
			"target":34962
		},
		{
			"buffer":0,
			"byteLength":21540,
			"byteOffset":166464,
			"target":34963
		}
	],
	"buffers":[
		{
			"byteLength":188004,
			"uri":"scene.bin"
		}
	]
}
