{
	"asset":{
		"generator":"Khronos glTF Blender I/O v3.6.28",
		"version":"2.0"
	},
	"scene":0,
	"scenes":[
		{
			"name":"Scene",
			"nodes":[
				0
			]
		}
	],
	"nodes":[
		{
			"mesh":0,
			"name":"Zombie",
			"scale":[
				0.23689651489257812,
				0.23689651489257812,
				0.23689651489257812
			]
		}
	],
	"materials":[
		{
			"doubleSided":true,
			"name":"Shirtlambert5",
			"pbrMetallicRoughness":{
				"baseColorTexture":{
					"index":0
				},
				"metallicFactor":0,
				"metallicRoughnessTexture":{
					"index":1
				}
			}
		},
		{
			"doubleSided":true,
			"name":"lambert1",
			"pbrMetallicRoughness":{
				"baseColorTexture":{
					"index":2
				},
				"metallicFactor":0,
				"metallicRoughnessTexture":{
					"index":3
				}
			}
		},
		{
			"doubleSided":true,
			"name":"Bodylambert3",
			"pbrMetallicRoughness":{
				"baseColorTexture":{
					"index":4
				},
				"metallicFactor":0,
				"metallicRoughnessTexture":{
					"index":5
				}
			}
		},
		{
			"doubleSided":true,
			"name":"pantslambert4",
			"pbrMetallicRoughness":{
				"baseColorTexture":{
					"index":6
				},
				"metallicFactor":0,
				"metallicRoughnessTexture":{
					"index":7
				}
			}
		}
	],
	"meshes":[
		{
			"name":"shirt_Shirtlambert5_0",
			"primitives":[
				{
					"attributes":{
						"POSITION":0,
						"NORMAL":1,
						"TEXCOORD_0":2
					},
					"indices":3,
					"material":0
				},
				{
					"attributes":{
						"POSITION":4,
						"NORMAL":5,
						"TEXCOORD_0":6
					},
					"indices":7,
					"material":1
				},
				{
					"attributes":{
						"POSITION":8,
						"NORMAL":9,
						"TEXCOORD_0":10
					},
					"indices":11,
					"material":2
				},
				{
					"attributes":{
						"POSITION":12,
						"NORMAL":13,
						"TEXCOORD_0":14
					},
					"indices":15,
					"material":3
				}
			]
		}
	],
	"textures":[
		{
			"sampler":0,
			"source":0
		},
		{
			"sampler":0,
			"source":1
		},
		{
			"sampler":0,
			"source":0
		},
		{
			"sampler":0,
			"source":1
		},
		{
			"sampler":0,
			"source":0
		},
		{
			"sampler":0,
			"source":1
		},
		{
			"sampler":0,
			"source":0
		},
		{
			"sampler":0,
			"source":1
		}
	],
	"images":[
		{
			"mimeType":"image/png",
			"name":"zombie_baseColor_diffuse",
			"uri":"Textures/zombie_baseColor_diffuse.png"
		},
		{
			"mimeType":"image/png",
			"name":"zombie_metallicRoughness_specular",
			"uri":"Textures/zombie_metallicRoughness_specular.png"
		}
	],
	"accessors":[
		{
			"bufferView":0,
			"componentType":5126,
			"count":3103,
			"max":[
				9.14486312866211,
				52.872955322265625,
				12.768841743469238
			],
			"min":[
				-7.078533172607422,
				35.189754486083984,
				-2.028989315032959
			],
			"type":"VEC3"
		},
		{
			"bufferView":1,
			"componentType":5126,
			"count":3103,
			"type":"VEC3"
		},
		{
			"bufferView":2,
			"componentType":5126,
			"count":3103,
			"type":"VEC2"
		},
		{
			"bufferView":3,
			"componentType":5123,
			"count":11601,
			"type":"SCALAR"
		},
		{
			"bufferView":4,
			"componentType":5126,
			"count":325,
			"max":[
				2.3855338096618652,
				55.547607421875,
				17.46794319152832
			],
			"min":[
				-1.3656039237976074,
				54.203189849853516,
				16.45432472229004
			],
			"type":"VEC3"
		},
		{
			"bufferView":5,
			"componentType":5126,
			"count":325,
			"type":"VEC3"
		},
		{
			"bufferView":6,
			"componentType":5126,
			"count":325,
			"type":"VEC2"
		},
		{
			"bufferView":7,
			"componentType":5123,
			"count":1080,
			"type":"SCALAR"
		},
		{
			"bufferView":8,
			"componentType":5126,
			"count":20183,
			"max":[
				9.15680980682373,
				60.76267623901367,
				23.848127365112305
			],
			"min":[
				-8.39354133605957,
				-0.1894032508134842,
				-12.214365005493164
			],
			"type":"VEC3"
		},
		{
			"bufferView":9,
			"componentType":5126,
			"count":20183,
			"type":"VEC3"
		},
		{
			"bufferView":10,
			"componentType":5126,
			"count":20183,
			"type":"VEC2"
		},
		{
			"bufferView":11,
			"componentType":5123,
			"count":62448,
			"type":"SCALAR"
		},
		{
			"bufferView":12,
			"componentType":5126,
			"count":3661,
			"max":[
				7.012237548828125,
				39.929813385009766,
				9.586822509765625
			],
			"min":[
				-7.574254989624023,
				14.657761573791504,
				-6.030457019805908
			],
			"type":"VEC3"
		},
		{
			"bufferView":13,
			"componentType":5126,
			"count":3661,
			"type":"VEC3"
		},
		{
			"bufferView":14,
			"componentType":5126,
			"count":3661,
			"type":"VEC2"
		},
		{
			"bufferView":15,
			"componentType":5123,
			"count":15006,
			"type":"SCALAR"
		}
	],
	"bufferViews":[
		{
			"buffer":0,
			"byteLength":37236,
			"byteOffset":0,
			"target":34962
		},
		{
			"buffer":0,
			"byteLength":37236,
			"byteOffset":37236,
			"target":34962
		},
		{
			"buffer":0,
			"byteLength":24824,
			"byteOffset":74472,
			"target":34962
		},
		{
			"buffer":0,
			"byteLength":23202,
			"byteOffset":99296,
			"target":34963
		},
		{
			"buffer":0,
			"byteLength":3900,
			"byteOffset":122500,
			"target":34962
		},
		{
			"buffer":0,
			"byteLength":3900,
			"byteOffset":126400,
			"target":34962
		},
		{
			"buffer":0,
			"byteLength":2600,
			"byteOffset":130300,
			"target":34962
		},
		{
			"buffer":0,
			"byteLength":2160,
			"byteOffset":132900,
			"target":34963
		},
		{
			"buffer":0,
			"byteLength":242196,
			"byteOffset":135060,
			"target":34962
		},
		{
			"buffer":0,
			"byteLength":242196,
			"byteOffset":377256,
			"target":34962
		},
		{
			"buffer":0,
			"byteLength":161464,
			"byteOffset":619452,
			"target":34962
		},
		{
			"buffer":0,
			"byteLength":124896,
			"byteOffset":780916,
			"target":34963
		},
		{
			"buffer":0,
			"byteLength":43932,
			"byteOffset":905812,
			"target":34962
		},
		{
			"buffer":0,
			"byteLength":43932,
			"byteOffset":949744,
			"target":34962
		},
		{
			"buffer":0,
			"byteLength":29288,
			"byteOffset":993676,
			"target":34962
		},
		{
			"buffer":0,
			"byteLength":30012,
			"byteOffset":1022964,
			"target":34963
		}
	],
	"samplers":[
		{
			"magFilter":9729,
			"minFilter":9987
		}
	],
	"buffers":[
		{
			"byteLength":1052976,
			"uri":"scene.bin"
		}
	]
}
