{
	"asset":{
		"generator":"Khronos glTF Blender I/O v3.6.28",
		"version":"2.0"
	},
	"scene":0,
	"scenes":[
		{
			"name":"Scene",
			"nodes":[
				0
			]
		}
	],
	"nodes":[
		{
			"mesh":0,
			"name":"Object_3",
			"rotation":[
				-0.7933533787727356,
				0,
				0,
				0.6087614297866821
			]
		}
	],
	"materials":[
		{
			"doubleSided":true,
			"name":"material_0",
			"pbrMetallicRoughness":{
				"baseColorTexture":{
					"index":0
				},
				"metallicFactor":0,
				"roughnessFactor":0.6000000238418579
			}
		}
	],
	"meshes":[
		{
			"name":"Object_1",
			"primitives":[
				{
					"attributes":{
						"POSITION":0,
						"NORMAL":1,
						"TEXCOORD_0":2
					},
					"indices":3,
					"material":0
				}
			]
		}
	],
	"textures":[
		{
			"sampler":0,
			"source":0
		}
	],
	"images":[
		{
			"mimeType":"image/jpeg",
			"name":"material_0_baseColor",
			"uri":"Textures/material_0_baseColor.jpg"
		}
	],
	"accessors":[
		{
			"bufferView":0,
			"componentType":5126,
			"count":165726,
			"max":[
				0.2566450834274292,
				0.363423228263855,
				0.7485586404800415
			],
			"min":[
				-0.25466790795326233,
				-0.3367343544960022,
				-0.9483063220977783
			],
			"type":"VEC3"
		},
		{
			"bufferView":1,
			"componentType":5126,
			"count":165726,
			"type":"VEC3"
		},
		{
			"bufferView":2,
			"componentType":5126,
			"count":165726,
			"type":"VEC2"
		},
		{
			"bufferView":3,
			"componentType":5125,
			"count":602856,
			"type":"SCALAR"
		}
	],
	"bufferViews":[
		{
			"buffer":0,
			"byteLength":1988712,
			"byteOffset":0,
			"target":34962
		},
		{
			"buffer":0,
			"byteLength":1988712,
			"byteOffset":1988712,
			"target":34962
		},
		{
			"buffer":0,
			"byteLength":1325808,
			"byteOffset":3977424,
			"target":34962
		},
		{
			"buffer":0,
			"byteLength":2411424,
			"byteOffset":5303232,
			"target":34963
		}
	],
	"samplers":[
		{
			"magFilter":9729,
			"minFilter":9987
		}
	],
	"buffers":[
		{
			"byteLength":7714656,
			"uri":"scene.bin"
		}
	]
}
