{
	"asset":{
		"generator":"Khronos glTF Blender I/O v3.6.28",
		"version":"2.0"
	},
	"scene":0,
	"scenes":[
		{
			"name":"Scene",
			"nodes":[
				0
			]
		}
	],
	"nodes":[
		{
			"mesh":0,
			"name":"TomMesh_4zdGc_0_bo2_mtl_mi8_desert_0",
			"rotation":[
				-0.005077696871012449,
				0,
				0,
				0.9999871253967285
			],
			"scale":[
				9.999999747378752e-05,
				0.00010000001202570274,
				0.00010000001202570274
			],
			"translation":[
				0.06441225111484528,
				-0.7830901145935059,
				0.03130931407213211
			]
		}
	],
	"materials":[
		{
			"doubleSided":true,
			"name":"bo2_mtl_mi8_desert",
			"pbrMetallicRoughness":{
				"baseColorTexture":{
					"index":0
				},
				"metallicFactor":0.4132508337497711,
				"metallicRoughnessTexture":{
					"index":1
				}
			}
		},
		{
			"alphaMode":"BLEND",
			"doubleSided":true,
			"name":"Material.001",
			"pbrMetallicRoughness":{
				"baseColorTexture":{
					"index":2
				},
				"metallicFactor":0,
				"metallicRoughnessTexture":{
					"index":3
				}
			}
		}
	],
	"meshes":[
		{
			"name":"TomMesh_4zdGc_0_bo2_mtl_mi8_desert_0",
			"primitives":[
				{
					"attributes":{
						"COLOR_0":0,
						"POSITION":1,
						"NORMAL":2,
						"TEXCOORD_0":3
					},
					"indices":4,
					"material":0
				},
				{
					"attributes":{
						"COLOR_0":5,
						"POSITION":6,
						"NORMAL":7,
						"TEXCOORD_0":8
					},
					"indices":9,
					"material":1
				}
			]
		}
	],
	"textures":[
		{
			"sampler":0,
			"source":0
		},
		{
			"sampler":0,
			"source":1
		},
		{
			"sampler":0,
			"source":0
		},
		{
			"sampler":0,
			"source":1
		}
	],
	"images":[
		{
			"mimeType":"image/png",
			"name":"Helicopter_baseColor_diffuse",
			"uri":"Textures/Helicopter_baseColor_diffuse.png"
		},
		{
			"mimeType":"image/png",
			"name":"Helicopter_metallicRoughness_specular",
			"uri":"Textures/Helicopter_metallicRoughness_specular.png"
		}
	],
	"accessors":[
		{
			"bufferView":0,
			"componentType":5123,
			"count":10058,
			"normalized":true,
			"type":"VEC4"
		},
		{
			"bufferView":1,
			"componentType":5126,
			"count":10058,
			"max":[
				20918.935546875,
				15409.7822265625,
				12352.9931640625
			],
			"min":[
				-47761.11328125,
				-7675.037109375,
				-12785.251953125
			],
			"type":"VEC3"
		},
		{
			"bufferView":2,
			"componentType":5126,
			"count":10058,
			"type":"VEC3"
		},
		{
			"bufferView":3,
			"componentType":5126,
			"count":10058,
			"type":"VEC2"
		},
		{
			"bufferView":4,
			"componentType":5123,
			"count":22698,
			"type":"SCALAR"
		},
		{
			"bufferView":5,
			"componentType":5123,
			"count":166,
			"normalized":true,
			"type":"VEC4"
		},
		{
			"bufferView":6,
			"componentType":5126,
			"count":166,
			"max":[
				20900.302734375,
				1743.428955078125,
				4248.56884765625
			],
			"min":[
				15424.849609375,
				-4123.646484375,
				-4680.82763671875
			],
			"type":"VEC3"
		},
		{
			"bufferView":7,
			"componentType":5126,
			"count":166,
			"type":"VEC3"
		},
		{
			"bufferView":8,
			"componentType":5126,
			"count":166,
			"type":"VEC2"
		},
		{
			"bufferView":9,
			"componentType":5123,
			"count":354,
			"type":"SCALAR"
		}
	],
	"bufferViews":[
		{
			"buffer":0,
			"byteLength":80464,
			"byteOffset":0,
			"target":34962
		},
		{
			"buffer":0,
			"byteLength":120696,
			"byteOffset":80464,
			"target":34962
		},
		{
			"buffer":0,
			"byteLength":120696,
			"byteOffset":201160,
			"target":34962
		},
		{
			"buffer":0,
			"byteLength":80464,
			"byteOffset":321856,
			"target":34962
		},
		{
			"buffer":0,
			"byteLength":45396,
			"byteOffset":402320,
			"target":34963
		},
		{
			"buffer":0,
			"byteLength":1328,
			"byteOffset":447716,
			"target":34962
		},
		{
			"buffer":0,
			"byteLength":1992,
			"byteOffset":449044,
			"target":34962
		},
		{
			"buffer":0,
			"byteLength":1992,
			"byteOffset":451036,
			"target":34962
		},
		{
			"buffer":0,
			"byteLength":1328,
			"byteOffset":453028,
			"target":34962
		},
		{
			"buffer":0,
			"byteLength":708,
			"byteOffset":454356,
			"target":34963
		}
	],
	"samplers":[
		{
			"magFilter":9729,
			"minFilter":9987
		}
	],
	"buffers":[
		{
			"byteLength":455064,
			"uri":"scene.bin"
		}
	]
}
