{
	"asset":{
		"generator":"Khronos glTF Blender I/O v3.6.28",
		"version":"2.0"
	},
	"scene":0,
	"scenes":[
		{
			"name":"Scene",
			"nodes":[
				0
			]
		}
	],
	"nodes":[
		{
			"mesh":0,
			"name":"Cube"
		}
	],
	"materials":[
		{
			"doubleSided":true,
			"name":"Building",
			"pbrMetallicRoughness":{
				"baseColorTexture":{
					"index":0
				},
				"metallicFactor":0,
				"roughnessFactor":0.6284403800964355
			}
		}
	],
	"meshes":[
		{
			"name":"Cube.001",
			"primitives":[
				{
					"attributes":{
						"POSITION":0,
						"NORMAL":1,
						"TEXCOORD_0":2
					},
					"indices":3,
					"material":0
				}
			]
		}
	],
	"textures":[
		{
			"sampler":0,
			"source":0
		}
	],
	"images":[
		{
			"mimeType":"image/png",
			"name":"TextueBuildingbaseColor_diffuse",
			"uri":"Textures/TextueBuildingbaseColor_diffuse.png"
		}
	],
	"accessors":[
		{
			"bufferView":0,
			"componentType":5126,
			"count":1320,
			"max":[
				3.008044958114624,
				9.614777565002441,
				3.008044958114624
			],
			"min":[
				-3.008044958114624,
				-0.00612977147102356,
				-3.008044958114624
			],
			"type":"VEC3"
		},
		{
			"bufferView":1,
			"componentType":5126,
			"count":1320,
			"type":"VEC3"
		},
		{
			"bufferView":2,
			"componentType":5126,
			"count":1320,
			"type":"VEC2"
		},
		{
			"bufferView":3,
			"componentType":5123,
			"count":3186,
			"type":"SCALAR"
		}
	],
	"bufferViews":[
		{
			"buffer":0,
			"byteLength":15840,
			"byteOffset":0,
			"target":34962
		},
		{
			"buffer":0,
			"byteLength":15840,
			"byteOffset":15840,
			"target":34962
		},
		{
			"buffer":0,
			"byteLength":10560,
			"byteOffset":31680,
			"target":34962
		},
		{
			"buffer":0,
			"byteLength":6372,
			"byteOffset":42240,
			"target":34963
		}
	],
	"samplers":[
		{
			"magFilter":9729,
			"minFilter":9987
		}
	],
	"buffers":[
		{
			"byteLength":48612,
			"uri":"scene.bin"
		}
	]
}
