{
	"asset":{
		"generator":"Khronos glTF Blender I/O v3.6.28",
		"version":"2.0"
	},
	"scene":0,
	"scenes":[
		{
			"name":"Scene",
			"nodes":[
				0
			]
		}
	],
	"nodes":[
		{
			"mesh":0,
			"name":"RuinedBuilding_01_Ruined_0.001",
			"rotation":[
				-0.70710688829422,
				0,
				0,
				0.7071066498756409
			],
			"translation":[
				0,
				0,
				-37
			]
		}
	],
	"materials":[
		{
			"doubleSided":true,
			"name":"BigTexture",
			"pbrMetallicRoughness":{
				"baseColorTexture":{
					"index":0
				},
				"metallicFactor":0,
				"roughnessFactor":0.5
			}
		}
	],
	"meshes":[
		{
			"name":"RuinedBuilding_01_Ruined_0.001",
			"primitives":[
				{
					"attributes":{
						"COLOR_0":0,
						"POSITION":1,
						"NORMAL":2,
						"TEXCOORD_0":3
					},
					"indices":4,
					"material":0
				}
			]
		}
	],
	"textures":[
		{
			"sampler":0,
			"source":0
		}
	],
	"images":[
		{
			"mimeType":"image/png",
			"name":"BakeTo_baseColor_diffuse",
			"uri":"Textures/BakeTo_baseColor_diffuse.png"
		}
	],
	"accessors":[
		{
			"bufferView":0,
			"componentType":5123,
			"count":21909,
			"normalized":true,
			"type":"VEC4"
		},
		{
			"bufferView":1,
			"componentType":5126,
			"count":21909,
			"max":[
				16.039886474609375,
				16.322317123413086,
				5.167484760284424
			],
			"min":[
				-16.050418853759766,
				-16.05030059814453,
				-1.2785528898239136
			],
			"type":"VEC3"
		},
		{
			"bufferView":2,
			"componentType":5126,
			"count":21909,
			"type":"VEC3"
		},
		{
			"bufferView":3,
			"componentType":5126,
			"count":21909,
			"type":"VEC2"
		},
		{
			"bufferView":4,
			"componentType":5123,
			"count":46863,
			"type":"SCALAR"
		}
	],
	"bufferViews":[
		{
			"buffer":0,
			"byteLength":175272,
			"byteOffset":0,
			"target":34962
		},
		{
			"buffer":0,
			"byteLength":262908,
			"byteOffset":175272,
			"target":34962
		},
		{
			"buffer":0,
			"byteLength":262908,
			"byteOffset":438180,
			"target":34962
		},
		{
			"buffer":0,
			"byteLength":175272,
			"byteOffset":701088,
			"target":34962
		},
		{
			"buffer":0,
			"byteLength":93726,
			"byteOffset":876360,
			"target":34963
		}
	],
	"samplers":[
		{
			"magFilter":9729,
			"minFilter":9987
		}
	],
	"buffers":[
		{
			"byteLength":970088,
			"uri":"scene.bin"
		}
	]
}
