{
	"asset":{
		"generator":"Khronos glTF Blender I/O v3.6.28",
		"version":"2.0"
	},
	"extensionsUsed":[
		"KHR_materials_specular",
		"KHR_materials_ior"
	],
	"scene":0,
	"scenes":[
		{
			"name":"Scene",
			"nodes":[
				0
			]
		}
	],
	"nodes":[
		{
			"mesh":0,
			"name":"Cube",
			"scale":[
				1,
				3.5916507244110107,
				1
			]
		}
	],
	"materials":[
		{
			"doubleSided":true,
			"extensions":{
				"KHR_materials_specular":{
					"specularColorFactor":[
						0,
						0,
						0
					]
				},
				"KHR_materials_ior":{
					"ior":1.4500000476837158
				}
			},
			"name":"Concrete",
			"pbrMetallicRoughness":{
				"baseColorTexture":{
					"index":0
				},
				"metallicFactor":0.26605504751205444,
				"metallicRoughnessTexture":{
					"index":1
				}
			}
		},
		{
			"doubleSided":true,
			"extensions":{
				"KHR_materials_specular":{
					"specularColorFactor":[
						2.371357614441398,
						2.371357614441398,
						2.371357614441398
					]
				},
				"KHR_materials_ior":{
					"ior":1.4500000476837158
				}
			},
			"name":"Glass",
			"pbrMetallicRoughness":{
				"baseColorTexture":{
					"index":2
				},
				"metallicRoughnessTexture":{
					"index":3
				}
			}
		}
	],
	"meshes":[
		{
			"name":"Cube.005",
			"primitives":[
				{
					"attributes":{
						"POSITION":0,
						"NORMAL":1,
						"TEXCOORD_0":2
					},
					"indices":3,
					"material":0
				},
				{
					"attributes":{
						"POSITION":4,
						"NORMAL":5,
						"TEXCOORD_0":6
					},
					"indices":7,
					"material":1
				}
			]
		}
	],
	"textures":[
		{
			"sampler":0,
			"source":0
		},
		{
			"sampler":0,
			"source":1
		},
		{
			"sampler":0,
			"source":0
		},
		{
			"sampler":0,
			"source":1
		}
	],
	"images":[
		{
			"mimeType":"image/png",
			"name":"comb_baseColor_diffuse",
			"uri":"Textures/comb_baseColor_diffuse.png"
		},
		{
			"mimeType":"image/png",
			"name":"combined_metallicRoughness_specular",
			"uri":"Textures/combined_metallicRoughness_specular.png"
		}
	],
	"accessors":[
		{
			"bufferView":0,
			"componentType":5126,
			"count":20540,
			"max":[
				1.033095359802246,
				1.033095359802246,
				1.033095359802246
			],
			"min":[
				-1.033095359802246,
				-1.033095359802246,
				-1.033095359802246
			],
			"type":"VEC3"
		},
		{
			"bufferView":1,
			"componentType":5126,
			"count":20540,
			"type":"VEC3"
		},
		{
			"bufferView":2,
			"componentType":5126,
			"count":20540,
			"type":"VEC2"
		},
		{
			"bufferView":3,
			"componentType":5123,
			"count":31488,
			"type":"SCALAR"
		},
		{
			"bufferView":4,
			"componentType":5126,
			"count":437,
			"max":[
				1,
				1,
				1
			],
			"min":[
				-1,
				-1,
				-1
			],
			"type":"VEC3"
		},
		{
			"bufferView":5,
			"componentType":5126,
			"count":437,
			"type":"VEC3"
		},
		{
			"bufferView":6,
			"componentType":5126,
			"count":437,
			"type":"VEC2"
		},
		{
			"bufferView":7,
			"componentType":5123,
			"count":2010,
			"type":"SCALAR"
		}
	],
	"bufferViews":[
		{
			"buffer":0,
			"byteLength":246480,
			"byteOffset":0,
			"target":34962
		},
		{
			"buffer":0,
			"byteLength":246480,
			"byteOffset":246480,
			"target":34962
		},
		{
			"buffer":0,
			"byteLength":164320,
			"byteOffset":492960,
			"target":34962
		},
		{
			"buffer":0,
			"byteLength":62976,
			"byteOffset":657280,
			"target":34963
		},
		{
			"buffer":0,
			"byteLength":5244,
			"byteOffset":720256,
			"target":34962
		},
		{
			"buffer":0,
			"byteLength":5244,
			"byteOffset":725500,
			"target":34962
		},
		{
			"buffer":0,
			"byteLength":3496,
			"byteOffset":730744,
			"target":34962
		},
		{
			"buffer":0,
			"byteLength":4020,
			"byteOffset":734240,
			"target":34963
		}
	],
	"samplers":[
		{
			"magFilter":9729,
			"minFilter":9987
		}
	],
	"buffers":[
		{
			"byteLength":738260,
			"uri":"building.bin"
		}
	]
}
