{
	"asset":{
		"generator":"Khronos glTF Blender I/O v3.6.28",
		"version":"2.0"
	},
	"scene":0,
	"scenes":[
		{
			"name":"Scene",
			"nodes":[
				0
			]
		}
	],
	"nodes":[
		{
			"mesh":0,
			"name":"TomMesh_4zdGc_0_bo2_mtl_mi8_desert_0.001",
			"rotation":[
				-0.005077696871012449,
				0,
				0,
				0.9999871253967285
			],
			"scale":[
				9.999999747378752e-05,
				0.00010000001202570274,
				0.00010000001202570274
			],
			"translation":[
				-0.019314944744110107,
				0.1284530758857727,
				-0.021150344982743263
			]
		}
	],
	"materials":[
		{
			"doubleSided":true,
			"name":"bo2_mtl_mi8_desert",
			"pbrMetallicRoughness":{
				"baseColorTexture":{
					"index":0,
					"texCoord":1
				},
				"metallicFactor":0.5090909004211426,
				"metallicRoughnessTexture":{
					"index":1,
					"texCoord":1
				}
			}
		}
	],
	"meshes":[
		{
			"name":"TomMesh_4zdGc_0_bo2_mtl_mi8_desert_0.001",
			"primitives":[
				{
					"attributes":{
						"COLOR_0":0,
						"POSITION":1,
						"NORMAL":2,
						"TEXCOORD_0":3,
						"TEXCOORD_1":4
					},
					"indices":5,
					"material":0
				}
			]
		}
	],
	"textures":[
		{
			"sampler":0,
			"source":0
		},
		{
			"sampler":0,
			"source":1
		}
	],
	"images":[
		{
			"mimeType":"image/png",
			"name":"rotor_baseColor_diffuse",
			"uri":"Textures/rotor_baseColor_diffuse.png"
		},
		{
			"mimeType":"image/png",
			"name":"rotor_metallicRoughness_specular",
			"uri":"Textures/rotor_metallicRoughness_specular.png"
		}
	],
	"accessors":[
		{
			"bufferView":0,
			"componentType":5123,
			"count":1325,
			"normalized":true,
			"type":"VEC4"
		},
		{
			"bufferView":1,
			"componentType":5126,
			"count":1325,
			"max":[
				36578.7109375,
				2589.6162109375,
				35539.17578125
			],
			"min":[
				-30442.0234375,
				-1648.95556640625,
				-33845.3359375
			],
			"type":"VEC3"
		},
		{
			"bufferView":2,
			"componentType":5126,
			"count":1325,
			"type":"VEC3"
		},
		{
			"bufferView":3,
			"componentType":5126,
			"count":1325,
			"type":"VEC2"
		},
		{
			"bufferView":4,
			"componentType":5126,
			"count":1325,
			"type":"VEC2"
		},
		{
			"bufferView":5,
			"componentType":5123,
			"count":2082,
			"type":"SCALAR"
		}
	],
	"bufferViews":[
		{
			"buffer":0,
			"byteLength":10600,
			"byteOffset":0,
			"target":34962
		},
		{
			"buffer":0,
			"byteLength":15900,
			"byteOffset":10600,
			"target":34962
		},
		{
			"buffer":0,
			"byteLength":15900,
			"byteOffset":26500,
			"target":34962
		},
		{
			"buffer":0,
			"byteLength":10600,
			"byteOffset":42400,
			"target":34962
		},
		{
			"buffer":0,
			"byteLength":10600,
			"byteOffset":53000,
			"target":34962
		},
		{
			"buffer":0,
			"byteLength":4164,
			"byteOffset":63600,
			"target":34963
		}
	],
	"samplers":[
		{
			"magFilter":9729,
			"minFilter":9987
		}
	],
	"buffers":[
		{
			"byteLength":67764,
			"uri":"scene.bin"
		}
	]
}
