{
	"asset":{
		"generator":"Khronos glTF Blender I/O v3.6.28",
		"version":"2.0"
	},
	"scene":0,
	"scenes":[
		{
			"name":"Scene",
			"nodes":[
				0
			]
		}
	],
	"nodes":[
		{
			"mesh":0,
			"name":"Cube"
		}
	],
	"materials":[
		{
			"doubleSided":true,
			"name":"Building",
			"pbrMetallicRoughness":{
				"baseColorTexture":{
					"index":0
				},
				"metallicFactor":0,
				"roughnessFactor":0.6284403800964355
			}
		},
		{
			"doubleSided":true,
			"name":"Window Sill",
			"pbrMetallicRoughness":{
				"baseColorTexture":{
					"index":1
				},
				"metallicFactor":0,
				"roughnessFactor":0.6926605701446533
			}
		},
		{
			"doubleSided":true,
			"name":"Window",
			"pbrMetallicRoughness":{
				"baseColorTexture":{
					"index":2
				},
				"metallicFactor":0,
				"roughnessFactor":0.1513761579990387
			}
		},
		{
			"doubleSided":true,
			"name":"Conkret",
			"pbrMetallicRoughness":{
				"baseColorTexture":{
					"index":3
				},
				"metallicFactor":0,
				"roughnessFactor":0.5
			}
		},
		{
			"doubleSided":true,
			"name":"Roof",
			"pbrMetallicRoughness":{
				"baseColorTexture":{
					"index":4
				},
				"metallicFactor":0,
				"roughnessFactor":0.5
			}
		}
	],
	"meshes":[
		{
			"name":"Cube.001",
			"primitives":[
				{
					"attributes":{
						"POSITION":0,
						"NORMAL":1,
						"TEXCOORD_0":2
					},
					"indices":3,
					"material":0
				},
				{
					"attributes":{
						"POSITION":4,
						"NORMAL":5,
						"TEXCOORD_0":6
					},
					"indices":7,
					"material":1
				},
				{
					"attributes":{
						"POSITION":8,
						"NORMAL":9,
						"TEXCOORD_0":10
					},
					"indices":11,
					"material":2
				},
				{
					"attributes":{
						"POSITION":12,
						"NORMAL":13,
						"TEXCOORD_0":14
					},
					"indices":15,
					"material":3
				},
				{
					"attributes":{
						"POSITION":16,
						"NORMAL":17,
						"TEXCOORD_0":18
					},
					"indices":19,
					"material":4
				}
			]
		}
	],
	"textures":[
		{
			"sampler":0,
			"source":0
		},
		{
			"sampler":0,
			"source":1
		},
		{
			"sampler":0,
			"source":2
		},
		{
			"sampler":0,
			"source":3
		},
		{
			"sampler":0,
			"source":4
		}
	],
	"images":[
		{
			"mimeType":"image/png",
			"name":"baseColor_building",
			"uri":"Textures/baseColor_building.png"
		},
		{
			"mimeType":"image/png",
			"name":"baseColor_window_sill",
			"uri":"Textures/baseColor_window_sill.png"
		},
		{
			"mimeType":"image/png",
			"name":"baseColor_window",
			"uri":"Textures/baseColor_window.png"
		},
		{
			"mimeType":"image/png",
			"name":"baseColor_conckret",
			"uri":"Textures/baseColor_conckret.png"
		},
		{
			"mimeType":"image/png",
			"name":"baseColor_roof",
			"uri":"Textures/baseColor_roof.png"
		}
	],
	"accessors":[
		{
			"bufferView":0,
			"componentType":5126,
			"count":295,
			"max":[
				3.0029561519622803,
				9.614777565002441,
				3.0029561519622803
			],
			"min":[
				-3.0029561519622803,
				0.2731104791164398,
				-3.0029561519622803
			],
			"type":"VEC3"
		},
		{
			"bufferView":1,
			"componentType":5126,
			"count":295,
			"type":"VEC3"
		},
		{
			"bufferView":2,
			"componentType":5126,
			"count":295,
			"type":"VEC2"
		},
		{
			"bufferView":3,
			"componentType":5123,
			"count":720,
			"type":"SCALAR"
		},
		{
			"bufferView":4,
			"componentType":5126,
			"count":568,
			"max":[
				3.0029561519622803,
				8.492012023925781,
				3.0029561519622803
			],
			"min":[
				-3.0029561519622803,
				0.1211615800857544,
				-3.0029561519622803
			],
			"type":"VEC3"
		},
		{
			"bufferView":5,
			"componentType":5126,
			"count":568,
			"type":"VEC3"
		},
		{
			"bufferView":6,
			"componentType":5126,
			"count":568,
			"type":"VEC2"
		},
		{
			"bufferView":7,
			"componentType":5123,
			"count":1428,
			"type":"SCALAR"
		},
		{
			"bufferView":8,
			"componentType":5126,
			"count":16,
			"max":[
				2.744943380355835,
				8.407649040222168,
				1.8052947521209717
			],
			"min":[
				0.9576680660247803,
				1.283769130706787,
				-2.7397162914276123
			],
			"type":"VEC3"
		},
		{
			"bufferView":9,
			"componentType":5126,
			"count":16,
			"type":"VEC3"
		},
		{
			"bufferView":10,
			"componentType":5126,
			"count":16,
			"type":"VEC2"
		},
		{
			"bufferView":11,
			"componentType":5123,
			"count":24,
			"type":"SCALAR"
		},
		{
			"bufferView":12,
			"componentType":5126,
			"count":62,
			"max":[
				2.98233962059021,
				9.412402153015137,
				2.98233962059021
			],
			"min":[
				-2.98233962059021,
				-0.00612977147102356,
				-2.98233962059021
			],
			"type":"VEC3"
		},
		{
			"bufferView":13,
			"componentType":5126,
			"count":62,
			"type":"VEC3"
		},
		{
			"bufferView":14,
			"componentType":5126,
			"count":62,
			"type":"VEC2"
		},
		{
			"bufferView":15,
			"componentType":5123,
			"count":150,
			"type":"SCALAR"
		},
		{
			"bufferView":16,
			"componentType":5126,
			"count":391,
			"max":[
				3.008044958114624,
				9.593216896057129,
				3.008044958114624
			],
			"min":[
				-3.008044958114624,
				1.3296394348144531,
				-3.008044958114624
			],
			"type":"VEC3"
		},
		{
			"bufferView":17,
			"componentType":5126,
			"count":391,
			"type":"VEC3"
		},
		{
			"bufferView":18,
			"componentType":5126,
			"count":391,
			"type":"VEC2"
		},
		{
			"bufferView":19,
			"componentType":5123,
			"count":864,
			"type":"SCALAR"
		}
	],
	"bufferViews":[
		{
			"buffer":0,
			"byteLength":3540,
			"byteOffset":0,
			"target":34962
		},
		{
			"buffer":0,
			"byteLength":3540,
			"byteOffset":3540,
			"target":34962
		},
		{
			"buffer":0,
			"byteLength":2360,
			"byteOffset":7080,
			"target":34962
		},
		{
			"buffer":0,
			"byteLength":1440,
			"byteOffset":9440,
			"target":34963
		},
		{
			"buffer":0,
			"byteLength":6816,
			"byteOffset":10880,
			"target":34962
		},
		{
			"buffer":0,
			"byteLength":6816,
			"byteOffset":17696,
			"target":34962
		},
		{
			"buffer":0,
			"byteLength":4544,
			"byteOffset":24512,
			"target":34962
		},
		{
			"buffer":0,
			"byteLength":2856,
			"byteOffset":29056,
			"target":34963
		},
		{
			"buffer":0,
			"byteLength":192,
			"byteOffset":31912,
			"target":34962
		},
		{
			"buffer":0,
			"byteLength":192,
			"byteOffset":32104,
			"target":34962
		},
		{
			"buffer":0,
			"byteLength":128,
			"byteOffset":32296,
			"target":34962
		},
		{
			"buffer":0,
			"byteLength":48,
			"byteOffset":32424,
			"target":34963
		},
		{
			"buffer":0,
			"byteLength":744,
			"byteOffset":32472,
			"target":34962
		},
		{
			"buffer":0,
			"byteLength":744,
			"byteOffset":33216,
			"target":34962
		},
		{
			"buffer":0,
			"byteLength":496,
			"byteOffset":33960,
			"target":34962
		},
		{
			"buffer":0,
			"byteLength":300,
			"byteOffset":34456,
			"target":34963
		},
		{
			"buffer":0,
			"byteLength":4692,
			"byteOffset":34756,
			"target":34962
		},
		{
			"buffer":0,
			"byteLength":4692,
			"byteOffset":39448,
			"target":34962
		},
		{
			"buffer":0,
			"byteLength":3128,
			"byteOffset":44140,
			"target":34962
		},
		{
			"buffer":0,
			"byteLength":1728,
			"byteOffset":47268,
			"target":34963
		}
	],
	"samplers":[
		{
			"magFilter":9729,
			"minFilter":9987
		}
	],
	"buffers":[
		{
			"byteLength":48996,
			"uri":"scene.bin"
		}
	]
}
